<svg width="22" height="21" viewBox="0 0 22 21" fill="none" xmlns="http://www.w3.org/2000/svg">
<path d="M10.75 20.1616C10.45 20.1616 10.15 20.0916 9.9 19.9516C8.03 18.9316 4.74 17.8516 2.68 17.5816L2.39 17.5415C1.08 17.3815 0 16.1516 0 14.8216V2.74155C0 1.95155 0.31 1.23155 0.88 0.711551C1.45 0.191551 2.19 -0.0584494 2.97 0.0115506C5.17 0.181551 8.49 1.28155 10.37 2.46155L10.61 2.60155C10.68 2.64155 10.83 2.64155 10.89 2.61155L11.05 2.51155C12.93 1.33155 16.25 0.211551 18.46 0.0215508C18.48 0.0215508 18.56 0.0215508 18.58 0.0215508C19.31 -0.0484492 20.06 0.211551 20.62 0.731551C21.19 1.25155 21.5 1.97155 21.5 2.76155V14.8316C21.5 16.1716 20.42 17.3916 19.1 17.5515L18.77 17.5916C16.71 17.8616 13.41 18.9515 11.58 19.9615C11.34 20.1015 11.05 20.1616 10.75 20.1616ZM2.73 1.50155C2.41 1.50155 2.12 1.61155 1.89 1.82155C1.64 2.05155 1.5 2.38155 1.5 2.74155V14.8216C1.5 15.4116 2.01 15.9816 2.58 16.0616L2.88 16.1016C5.13 16.4016 8.58 17.5316 10.58 18.6216C10.67 18.6616 10.8 18.6716 10.85 18.6516C12.85 17.5415 16.32 16.4016 18.58 16.1016L18.92 16.0616C19.49 15.9916 20 15.4116 20 14.8216V2.75155C20 2.38155 19.86 2.06155 19.61 1.82155C19.35 1.59155 19.02 1.48155 18.65 1.50155C18.63 1.50155 18.55 1.50155 18.53 1.50155C16.62 1.67155 13.54 2.70155 11.86 3.75155L11.7 3.86155C11.15 4.20155 10.37 4.20155 9.84 3.87155L9.6 3.73155C7.89 2.68155 4.81 1.66155 2.85 1.50155C2.81 1.50155 2.77 1.50155 2.73 1.50155Z" fill="#005558"/>
<path d="M10.75 19.3215C10.34 19.3215 10 18.9815 10 18.5715V3.57153C10 3.16153 10.34 2.82153 10.75 2.82153C11.16 2.82153 11.5 3.16153 11.5 3.57153V18.5715C11.5 18.9915 11.16 19.3215 10.75 19.3215Z" fill="#005558"/>
<path d="M6.5 7.32153H4.25C3.84 7.32153 3.5 6.98153 3.5 6.57153C3.5 6.16153 3.84 5.82153 4.25 5.82153H6.5C6.91 5.82153 7.25 6.16153 7.25 6.57153C7.25 6.98153 6.91 7.32153 6.5 7.32153Z" fill="#005558"/>
<path d="M7.25 10.3215H4.25C3.84 10.3215 3.5 9.98153 3.5 9.57153C3.5 9.16153 3.84 8.82153 4.25 8.82153H7.25C7.66 8.82153 8 9.16153 8 9.57153C8 9.98153 7.66 10.3215 7.25 10.3215Z" fill="#005558"/>
</svg>
